<svg xmlns="http://www.w3.org/2000/svg" xmlns:xlink="http://www.w3.org/1999/xlink" aria-hidden="true" role="img" class="iconify iconify--logos" width="35.93" height="32" preserveAspectRatio="xMidYMid meet" viewBox="0 0 256 228"><path fill="#00D8FF" d="M210.483 73.824a171.49 171.49 0 0 0-8.24-2.597c.465-1.9.893-3.777 1.273-5.621c6.238-30.281 2.16-54.676-11.769-62.708c-13.355-7.7-35.196.329-57.254 19.526a171.23 171.23 0 0 0-6.375 5.848a155.866 155.866 0 0 0-4.241-3.917C100.759 3.829 77.587-4.822 63.673 3.233C50.33 10.957 46.379 33.89 51.995 62.588a170.974 170.974 0 0 0 1.892 8.48c-3.28.932-6.445 1.924-9.474 2.98C17.309 83.498 0 98.307 0 113.668c0 15.865 18.582 31.778 46.812 41.427a145.52 145.52 0 0 0 6.921 2.165a167.467 167.467 0 0 0-2.01 9.138c-5.354 28.2-1.173 50.591 12.134 58.266c13.744 7.926 36.812-.22 59.273-19.855a145.567 145.567 0 0 0 5.342-4.923a168.064 168.064 0 0 0 6.92 6.314c21.758 18.722 43.246 26.282 56.54 18.586c13.731-7.949 18.194-32.003 12.4-61.268a145.016 145.016 0 0 0-1.535-6.842c1.62-.48 3.21-.974 4.76-1.488c29.348-9.723 48.443-25.443 48.443-41.52c0-15.417-17.868-30.326-45.517-39.844Zm-6.365 70.984c-1.4.463-2.836.91-4.3 1.345c-3.24-10.257-7.612-21.163-12.963-32.432c5.106-11 9.31-21.767 12.459-31.957c2.619.758 5.16 1.557 7.61 2.4c23.69 8.156 38.14 20.213 38.14 29.504c0 9.896-15.606 22.743-40.946 31.14Zm-10.514 20.834c2.562 12.94 2.927 24.64 1.23 33.787c-1.524 8.219-4.59 13.698-8.382 15.893c-8.067 4.67-25.32-1.4-43.927-17.412a156.726 156.726 0 0 1-6.437-5.87c7.214-7.889 14.423-17.06 21.459-27.246c12.376-1.098 24.068-2.894 34.671-5.345a134.17 134.17 0 0 1 1.386 6.193ZM87.276 214.515c-7.882 2.783-14.16 2.863-17.955.675c-8.075-4.657-11.432-22.636-6.853-46.752a156.923 156.923 0 0 1 1.869-8.499c10.486 2.32 22.093 3.988 34.498 4.994c7.084 9.967 14.501 19.128 21.976 27.15a134.668 134.668 0 0 1-4.877 4.492c-9.933 8.682-19.886 14.842-28.658 17.94ZM50.35 144.747c-12.483-4.267-22.792-9.812-29.858-15.863c-6.35-5.437-9.555-10.836-9.555-15.216c0-9.322 13.897-21.212 37.076-29.293c2.813-.98 5.757-1.905 8.812-2.773c3.204 10.42 7.547 21.35 12.883 32.619c-5.212 11.32-9.643 22.354-12.777 32.695a157.825 157.825 0 0 1-6.581-2.169Zm41.302-32.396c-5.612-11.402-9.993-22.526-13.049-32.975c5.275-1.283 10.937-2.2 16.898-2.734c1.357 1.385 2.72 2.807 4.091 4.265c3.61 3.84 7.212 7.9 10.798 12.172c-3.579 4.248-7.193 8.328-10.82 12.213a66.442 66.442 0 0 1-4.07 4.267c-1.248-.466-2.53-.94-3.848-1.442v.234Zm29.17 21.315a63.866 63.866 0 0 1-5.966 6.213a52.7 52.7 0 0 1-4.2 3.662c-1.438-1.302-2.88-2.657-4.324-4.064c-3.637-3.545-7.276-7.49-10.881-11.8c3.605-4.297 7.239-8.233 10.87-11.77c1.46-1.42 2.9-2.76 4.334-4.045a73.644 73.644 0 0 1 4.24 3.647c2.088 1.926 4.155 4.057 6.181 6.382c-1.348 1.957-2.695 3.87-4.075 5.755a14.37 14.37 0 0 1-.18 1.02Zm5.17 19.037a110.06 110.06 0 0 1-10.267 6.152c-3.547-6.182-7.41-12.313-11.58-18.376c.368-.45.745-.909 1.127-1.374a70.26 70.26 0 0 1 4.487-5.06c3.57 4.09 7.136 7.955 10.647 11.556c1.744 1.788 3.454 3.49 5.133 5.102h-.001v-.001Z"/><path fill="#00D8FF" d="M144.074 73.824a171.49 171.49 0 0 1 8.24-2.597c-.465-1.9-.893-3.777-1.273-5.621c-6.238-30.281-2.16-54.676 11.769-62.708c13.355-7.7 35.196.329 57.254 19.526a171.23 171.23 0 0 1 6.375 5.848a155.866 155.866 0 0 1 4.241-3.917c21.632-19.069 44.804-27.771 58.718-19.707c13.343 7.724 17.294 30.657 11.678 59.355a170.974 170.974 0 0 1-1.892 8.48c3.28.932 6.445 1.924 9.474 2.98c29.524 9.849 46.812 24.639 46.812 40.03c0 15.865-18.582 31.778-46.812 41.427a145.52 145.52 0 0 1-6.921 2.165a167.467 167.467 0 0 1 2.01 9.138c5.354 28.2 1.173 50.591-12.134 58.266c-13.744 7.926-36.812-.22-59.273-19.855a145.567 145.567 0 0 1-5.342-4.923a168.064 168.064 0 0 1-6.92 6.314c-21.758 18.722-43.246 26.282-56.54 18.586c-13.731-7.949-18.194-32.003-12.4-61.268a145.016 145.016 0 0 1 1.535-6.842c-1.62-.48-3.21-.974-4.76-1.488c-29.348-9.723-48.443-25.443-48.443-41.52c0-15.417 17.868-30.326 45.517-39.844Zm6.365 70.984c1.4.463 2.836.91 4.3 1.345c3.24-10.257 7.612-21.163 12.963-32.432c-5.106-11-9.31-21.767-12.459-31.957c-2.619.758-5.16 1.557-7.61 2.4c-23.69 8.156-38.14 20.213-38.14 29.504c0 9.896 15.606 22.743 40.946 31.14Zm10.514 20.834c-2.562 12.94-2.927 24.64-1.23 33.787c1.524 8.219 4.59 13.698 8.382 15.893c8.067 4.67 25.32-1.4 43.927-17.412a156.726 156.726 0 0 0 6.437-5.87c-7.214-7.889-14.423-17.06-21.459-27.246c-12.376-1.098-24.068-2.894-34.671-5.345a134.17 134.17 0 0 0-1.386 6.193Z"/><path fill="#00D8FF" d="M128.58 138.45c5.74 0 10.394-4.657 10.394-10.403c0-5.746-4.653-10.403-10.393-10.403c-5.74 0-10.393 4.657-10.393 10.403c0 5.746 4.652 10.403 10.393 10.403Z"/></svg>